<svg width="62" height="62" viewBox="0 0 62 62" fill="none" xmlns="http://www.w3.org/2000/svg">
<path d="M23.2501 56.8333H38.7501C51.6667 56.8333 56.8334 51.6666 56.8334 38.75V23.25C56.8334 10.3333 51.6667 5.16663 38.7501 5.16663H23.2501C10.3334 5.16663 5.16675 10.3333 5.16675 23.25V38.75C5.16675 51.6666 10.3334 56.8333 23.2501 56.8333Z" stroke="#FE4617" stroke-width="4" stroke-linecap="round" stroke-linejoin="round"/>
<path d="M30.9999 40.0417C32.1873 40.0417 33.363 39.8078 34.46 39.3535C35.557 38.8991 36.5537 38.2331 37.3933 37.3935C38.2329 36.5539 38.8989 35.5571 39.3533 34.4601C39.8077 33.3632 40.0416 32.1874 40.0416 31C40.0416 29.8127 39.8077 28.6369 39.3533 27.5399C38.8989 26.443 38.2329 25.4462 37.3933 24.6066C36.5537 23.767 35.557 23.101 34.46 22.6466C33.363 22.1922 32.1873 21.9584 30.9999 21.9584C28.6019 21.9584 26.3021 22.911 24.6065 24.6066C22.9109 26.3023 21.9583 28.602 21.9583 31C21.9583 33.398 22.9109 35.6978 24.6065 37.3935C26.3021 39.0891 28.6019 40.0417 30.9999 40.0417Z" stroke="#FE4617" stroke-width="4" stroke-linecap="round" stroke-linejoin="round"/>
<path d="M45.5596 18.0834H45.5911" stroke="#FE4617" stroke-width="4" stroke-linecap="round" stroke-linejoin="round"/>
</svg>
